<?xml version="1.0" encoding="iso-8859-1"?>
<!-- Generator: Adobe Illustrator 19.0.0, SVG Export Plug-In . SVG Version: 6.00 Build 0)  -->
<svg version="1.1" id="Capa_1" xmlns="http://www.w3.org/2000/svg" xmlns:xlink="http://www.w3.org/1999/xlink" x="0px" y="0px"
	 viewBox="0 0 511.999 511.999" style="enable-background:new 0 0 511.999 511.999;" xml:space="preserve">
<circle style="fill:#C2D5BF;" cx="248.642" cy="264.979" r="206.642"/>
<circle style="fill:#584639;" cx="248.642" cy="264.979" r="189.545"/>
<circle style="fill:#89571B;" cx="248.642" cy="264.979" r="173.089"/>
<path style="fill:#6D3C0B;" d="M325.608,412.075c-95.596,0-173.092-77.496-173.092-173.092c0-61.634,32.219-115.736,80.729-146.404
	c-88.38,7.794-157.692,81.997-157.692,172.402c0,95.596,77.496,173.092,173.092,173.092c33.962,0,65.634-9.79,92.364-26.688
	C335.934,411.833,330.8,412.075,325.608,412.075z"/>
<path style="fill:#A33628;" d="M236.23,163.758c-2.32,0-4.551-0.855-6.285-2.406l-15.891-14.208
	c-1.884-1.687-2.995-4.001-3.132-6.518c-0.141-2.503,0.707-4.925,2.387-6.805l5.503-6.155c1.789-2,4.353-3.146,7.036-3.146
	c2.326,0,4.561,0.855,6.293,2.405l15.891,14.206c3.877,3.466,4.212,9.441,0.751,13.319l-5.509,6.161
	c-1.687,1.884-4,2.995-6.518,3.132l-0.217,0.012L236.23,163.758z"/>
<path style="fill:#76CE19;" d="M283.3,231.31c-2.375,0-4.607-0.926-6.282-2.607l-9.705-9.705c-1.676-1.676-2.599-3.904-2.599-6.274
	c0-2.37,0.923-4.598,2.6-6.275l9.712-9.713c1.677-1.676,3.904-2.599,6.275-2.599c2.374,0,4.607,0.926,6.282,2.607l9.704,9.704
	c1.68,1.684,2.6,3.91,2.6,6.275c0,2.37-0.923,4.598-2.599,6.274l-9.714,9.714C287.899,230.388,285.67,231.31,283.3,231.31z"/>
<g>
	<path style="fill:#EA8018;" d="M310.599,345.892l-3.955-4.475l-5.343,2.538c-11.517,5.469-21.123,14.842-27.045,26.393
		l-2.753,5.369l4.195,4.277c10.898,11.11,16.9,25.875,16.9,41.577c0,0.253-0.01,0.507-0.019,0.762l-0.248,10.178
		c23.695-6.162,45.412-17.22,64.016-32.026l0.488-34.885l-7.598-0.505C334.391,364.106,320.669,357.287,310.599,345.892z"/>
	<path style="fill:#EA8018;" d="M309.268,422.921c-6.789-4.296-11.755-11.19-13.626-18.914c-0.575-2.38-0.866-4.833-0.866-7.295
		c0-17.084,13.9-30.983,30.983-30.983c5.43,0,10.777,1.431,15.461,4.139c8.087,4.676,13.593,12.648,15.107,21.875l0.115,0.702
		l-0.105,7.213l-3.079,2.359c-11.324,8.678-23.616,15.909-36.532,21.488l-3.884,1.678L309.268,422.921z"/>
	<path style="fill:#EA8018;" d="M265.21,370.783c-8.965-5.5-19.273-8.408-29.812-8.408c-2.586,0-5.261,0.19-7.954,0.567
		l-6.891,0.963l-1.915-6.69c-1.491-5.212-2.248-10.603-2.248-16.026c0-32.092,26.109-58.201,58.201-58.201
		c5.814,0,11.571,0.865,17.116,2.572l7.072,2.177l-1.613,7.222c-0.922,4.127-1.389,8.326-1.389,12.481
		c0,9.59,2.446,19.098,7.077,27.495l3.973,7.206l-7.311,3.776c-9.692,5.005-17.712,12.635-23.195,22.065l-4.121,7.09L265.21,370.783
		z"/>
	<path style="fill:#EA8018;" d="M265.209,370.783c-2.386-1.464-4.937-2.775-7.58-3.897l-0.915-0.387l-0.792-0.6
		c-7.712-5.835-12.315-15.073-12.315-24.71c0-17.085,13.9-30.984,30.983-30.984c7.655,0,15.02,2.847,20.735,8.016l1.757,1.589
		l0.61,2.288c1.189,4.464,2.926,8.784,5.161,12.836l3.974,7.206l-7.312,3.776c-9.692,5.005-17.712,12.635-23.194,22.065
		l-4.122,7.091L265.209,370.783z"/>
	<path style="fill:#EA8018;" d="M348.295,365.439c-30.011-2.404-53.52-27.881-53.52-57.999c0-31.004,24.242-56.535,55.188-58.123
		l8.54-0.438l-1.686,117.243L348.295,365.439z"/>
	<path style="fill:#EA8018;" d="M348.061,338.031c-15.106-2.42-26.068-15.286-26.068-30.591c0-15.5,11.585-28.704,26.949-30.715
		l9.179-1.201l-0.919,63.971L348.061,338.031z"/>
	<path style="fill:#EA8018;" d="M235.398,361.374c-4.455,0-8.939,0.54-13.327,1.603l-0.42,0.102l-0.356,0.129l-0.411,0.061
		l-0.454,0.125c-24.453,6.712-41.791,28.697-43.143,54.707l-0.234,4.512c21.82,9.927,46.061,15.46,71.596,15.46
		c15.239,0,30.015-1.977,44.093-5.676l0.46-4.119c0.265-2.373,0.399-4.709,0.399-6.942
		C293.599,388.274,267.489,361.374,235.398,361.374z"/>
	<path style="fill:#EA8018;" d="M248.462,437.494c-12.406,0-24.83-1.344-36.927-3.996l-4.719-1.034l-1.286-4.656
		c-0.741-2.683-1.116-5.452-1.116-8.234c0-17.085,13.9-30.984,30.984-30.984c17.084,0,30.983,13.9,30.983,30.984
		c0,4.49-1.014,9.027-2.931,13.118l-2.052,4.38l-4.833,0.222C253.638,437.429,250.987,437.494,248.462,437.494z"/>
</g>
<path style="fill:#F4F1E6;" d="M168.988,307.656c-28.49,0-51.668-27.406-51.668-61.093c0-11.772,6.227-29.983,18.507-54.127
	c7.048-13.856,19.444-22.128,33.161-22.128c13.717,0,26.115,8.272,33.161,22.128c12.281,24.145,18.507,42.355,18.507,54.127
	C220.657,280.252,197.478,307.656,168.988,307.656z"/>
<path style="fill:#DBC9B2;" d="M152.745,246.565c0-11.772,6.227-29.983,18.507-54.127c3.801-7.473,9.167-13.303,15.448-17.106
	c-5.364-3.248-11.394-5.022-17.713-5.022c-13.717,0-26.113,8.272-33.161,22.128c-12.281,24.144-18.507,42.354-18.507,54.127
	c0,33.687,23.179,61.093,51.668,61.093c6.22,0,12.186-1.307,17.713-3.7C166.908,295.391,152.745,272.898,152.745,246.565z"/>
<path style="fill:#FF7900;" d="M168.988,278.546c-14.682,0-26.629-11.946-26.629-26.629c0-14.683,11.946-26.629,26.629-26.629
	s26.629,11.946,26.629,26.629C195.617,266.6,183.672,278.546,168.988,278.546z"/>
<path style="fill:#FF5B00;" d="M167.481,251.917c0-10.144,5.703-18.978,14.068-23.473c-3.745-2.012-8.021-3.156-12.56-3.156
	c-14.682,0-26.629,11.946-26.629,26.629c0,14.683,11.946,26.629,26.629,26.629c4.539,0,8.817-1.144,12.56-3.156
	C173.182,270.896,167.481,262.061,167.481,251.917z"/>
<path style="fill:#68594E;" d="M462.306,489.94c-3.642,1.146-7.669,0.703-11.343-1.247c-4.776-2.532-8.503-7.286-10.224-13.038
	l-133.662-447c-1.829-6.114,0.686-12.145,5.724-13.73s10.553,1.919,12.556,7.978l146.447,442.974
	c1.884,5.7,1.552,11.729-0.915,16.545C468.993,486.127,465.944,488.795,462.306,489.94z"/>
<g>
	<path style="fill:#5B4A3F;" d="M450.963,488.693c3.674,1.95,7.703,2.393,11.343,1.247c0.942-0.296,1.842-0.699,2.695-1.191
		L312.864,14.911c-0.021,0.006-0.042,0.009-0.063,0.016c-5.038,1.586-7.552,7.616-5.724,13.73l133.662,447
		C442.458,481.408,446.187,486.161,450.963,488.693z"/>
	<polygon style="fill:#5B4A3F;" points="413.018,382.951 422.415,414.377 451.992,405.949 441.688,374.782 	"/>
</g>
<path style="fill:#68594E;" d="M370.395,504.993c-3.817,0-7.527-1.632-10.446-4.594c-3.795-3.85-5.924-9.502-5.838-15.506
	l6.702-466.507c0.092-6.381,4.301-11.379,9.582-11.379s9.49,4.999,9.581,11.379l6.703,466.506c0.086,6.002-2.042,11.654-5.84,15.508
	C377.919,503.363,374.211,504.993,370.395,504.993z"/>
<g>
	<path style="fill:#5B4A3F;" d="M370.395,7.007c-5.281,0-9.49,4.998-9.581,11.379l-6.702,466.507
		c-0.086,6.004,2.043,11.656,5.838,15.506c2.919,2.963,6.628,4.594,10.446,4.594l0,0L370.395,7.007L370.395,7.007z"/>
	<polygon style="fill:#5B4A3F;" points="355.043,420.076 355.51,387.503 385.279,387.503 385.749,420.076 	"/>
</g>
<path d="M476.921,464.957L442.1,358.247c14.098-29.194,21.265-60.55,21.265-93.265c0-62.973-27.38-122.322-75.183-163.262
	l-1.199-83.433C386.837,8.032,379.551,0,370.395,0c-9.154,0-16.44,8.031-16.587,18.285l-0.949,66.088l-20.535-62.997
	c-3.179-9.751-12.521-15.26-21.26-12.55c-8.743,2.712-13.324,12.541-10.427,22.378l8.079,27.442
	c-19.491-5.687-39.696-8.565-60.253-8.565c-57.402,0-111.369,22.354-151.958,62.943S33.561,207.58,33.561,264.982
	S55.914,376.351,96.503,416.94s94.556,62.943,151.958,62.943c34.582,0,68.606-8.321,99.061-24.149l-0.417,29.055
	c-0.113,7.866,2.75,15.348,7.856,20.528c4.246,4.308,9.729,6.681,15.434,6.681c5.706,0,11.187-2.372,15.433-6.68
	c5.107-5.18,7.971-12.662,7.858-20.529l-0.871-60.627c6.385-5.795,12.436-11.982,18.092-18.506l21.526,73.097
	c2.222,7.546,7.173,13.845,13.584,17.28c3.382,1.812,7.007,2.733,10.597,2.733c2.07,0,4.129-0.306,6.122-0.924
	c5.45-1.691,9.983-5.58,12.762-10.953C478.841,480.43,479.358,472.436,476.921,464.957z M348.386,395.661
	c-10.878,8.336-22.554,15.187-34.837,20.493c-5.021-3.177-8.722-8.241-10.125-14.032c-0.425-1.76-0.642-3.579-0.642-5.409
	c0-12.668,10.307-22.975,22.975-22.975c4.025,0,7.986,1.06,11.453,3.065c6.028,3.485,10.108,9.505,11.212,16.239L348.386,395.661z
	 M235.398,381.585c-20.948,0-37.991,17.043-37.991,37.991c0,0.603,0.017,1.202,0.044,1.801c-4.129-1.35-8.192-2.852-12.171-4.513
	c1.178-22.015,16.609-40.301,37.208-45.789c0.474-0.068,0.948-0.183,1.415-0.347c3.694-0.869,7.538-1.343,11.493-1.343
	c27.676,0,50.194,22.517,50.194,50.193c0,1.949-0.125,3.894-0.347,5.822c-4.208,0.955-8.466,1.737-12.764,2.359
	c0.591-2.676,0.908-5.416,0.908-8.181C273.388,398.627,256.346,381.585,235.398,381.585z M258.374,419.576
	c0,3.373-0.755,6.692-2.174,9.72c-2.568,0.117-5.146,0.191-7.738,0.191c-12.085,0-23.863-1.322-35.212-3.81
	c-0.546-1.975-0.828-4.017-0.828-6.102c0-12.669,10.307-22.976,22.976-22.976C248.066,396.599,258.374,406.906,258.374,419.576z
	 M287.821,305.571c-4.18-1.553-8.642-2.372-13.231-2.372c-20.948,0-37.99,17.043-37.99,37.991c0,4.609,0.837,9.098,2.407,13.287
	c-1.196-0.066-2.397-0.109-3.61-0.109c-3.076,0-6.098,0.229-9.062,0.644c-1.278-4.466-1.939-9.092-1.939-13.822
	c0-27.676,22.517-50.193,50.193-50.193c5.07,0,10.009,0.755,14.759,2.217C288.458,297.208,287.944,301.341,287.821,305.571z
	 M289.954,324.161c1.374,5.157,3.363,10.065,5.886,14.64c-11.03,5.696-20.202,14.418-26.443,25.157
	c-2.753-1.689-5.643-3.172-8.644-4.444c-5.745-4.347-9.139-11.101-9.139-18.324c0-12.669,10.307-22.976,22.975-22.976
	C280.32,318.214,285.72,320.332,289.954,324.161z M281.345,373.354c5.133-9.763,13.321-17.565,23.321-22.196
	c3.08,3.399,6.523,6.459,10.25,9.15c-11.599,3.461-20.889,12.321-24.94,23.656C287.467,380.132,284.58,376.57,281.345,373.354z
	 M349.327,330.123c-10.941-1.754-19.328-11.256-19.328-22.683c0-11.653,8.723-21.302,19.98-22.774L349.327,330.123z
	 M350.197,269.562c-19.655,1.428-35.212,17.865-35.212,37.878c0,19.643,14.986,35.852,34.125,37.795l-0.175,12.221
	c-25.792-2.066-46.152-23.701-46.152-50.016c0-26.804,21.119-48.768,47.59-50.126L350.197,269.562z M350.59,242.294
	c-24.76,0.897-46.044,15.65-56.294,36.733c-7.013-2.226-14.343-3.253-21.872-3.009c-33.174,1.074-60.542,27.402-62.875,60.511
	c-0.539,7.64,0.252,15.109,2.261,22.273c-21.468,8.362-37.453,27.77-40.912,51.215c-17.008-9.133-32.221-21.18-44.996-35.455
	c-2.141-2.393-5.563-3.054-8.477-1.706c-0.159,0.074-0.32,0.146-0.482,0.218c-4.44,1.96-5.66,7.678-2.428,11.3
	c32.901,36.873,80.76,60.127,133.949,60.127c35.988,0,70.165-10.395,99.656-30.176l-0.347,24.144
	c-30.1,17.264-64.391,26.4-99.309,26.4c-110.218,0-199.887-89.67-199.887-199.887s89.67-199.887,199.887-199.887
	c22.43,0,44.401,3.683,65.372,10.939l7.295,24.78c-22.76-10.061-47.613-15.351-72.668-15.351
	c-98.988,0-179.519,80.533-179.519,179.519c0,28.245,6.558,54.985,18.23,78.782c2.05,4.179,7.433,5.274,11.062,2.358
	c0.062-0.049,0.123-0.099,0.186-0.147c2.721-2.129,3.736-5.802,2.216-8.905c-10.67-21.781-16.678-46.243-16.678-72.088
	c0-90.709,73.797-164.505,164.505-164.505c27.242,0,54.227,6.795,78.036,19.649c0.121,0.065,0.246,0.117,0.369,0.175l24.289,82.499
	L350.59,242.294z M351.885,152.086L315.038,26.962c-0.656-2.23,0.194-3.711,0.473-3.797c0.269-0.086,1.815,0.654,2.535,2.863
	l34.146,104.65L351.885,152.086z M368.82,18.5c0.033-2.324,1.283-3.485,1.575-3.485c0.291,0,1.542,1.161,1.575,3.485l5.201,361.996
	h-13.551L368.82,18.5z M363.404,395.511h13.983l0.238,16.557h-14.458L363.404,395.511z M375.135,494.779
	c-0.992,1.006-2.62,2.206-4.741,2.206s-3.749-1.2-4.74-2.206c-2.27-2.302-3.592-5.955-3.536-9.772l0.832-57.925h14.89l0.833,57.925
	C378.727,488.824,377.405,492.477,375.135,494.779z M388.478,122.331c38.228,37.5,59.872,88.646,59.872,142.65
	c0,24.907-4.466,48.962-13.268,71.758l-11.096-34.005c2.642-12.341,3.995-25.029,3.995-37.753c0-39.143-12.376-76.344-35.79-107.577
	c-1.061-1.414-2.16-2.82-3.271-4.214L388.478,122.331z M389.304,179.915c15.524,25.582,23.662,54.683,23.662,85.067
	c0,1.274-0.024,2.548-0.053,3.822l-23.361-71.59L389.304,179.915z M391.607,340.122l1.173,3.985
	c-0.156,0.221-0.303,0.45-0.438,0.693c-0.211,0.38-0.437,0.757-0.652,1.136L391.607,340.122z M392.517,403.541l-0.443-30.845
	c0.036-0.046,0.077-0.085,0.112-0.132c1.024-1.365,2.055-2.782,3.064-4.211c1.112-1.577,2.193-3.181,3.257-4.799l7.281,24.724
	C401.627,393.579,397.195,398.679,392.517,403.541z M390.804,284.247l-0.526-36.639l39.974,122.628l-12.943,4.014L390.804,284.247z
	 M421.551,388.654l13.355-4.142l5.132,15.743l-13.809,4.283L421.551,388.654z M462.164,479.992c-0.65,1.254-1.849,2.883-3.875,3.511
	c-2.025,0.628-3.936-0.035-5.181-0.703c-2.85-1.526-5.194-4.625-6.273-8.286l-16.365-55.571l14.221-4.411l17.955,55.078
	C463.829,473.24,463.648,477.12,462.164,479.992z"/>
<path d="M168.988,163.303c-16.408,0-31.139,9.703-39.408,25.958c-12.966,25.492-19.269,44.235-19.269,57.303
	c0,37.55,26.322,68.099,58.675,68.099s58.676-30.55,58.676-68.099c0-13.068-6.302-31.811-19.269-57.304
	C200.128,173.007,185.396,163.303,168.988,163.303z M168.988,299.649c-24.075,0-43.661-23.814-43.661-53.085
	c0-7.217,3.06-21.836,17.637-50.496c5.654-11.115,15.382-17.75,26.024-17.75s20.371,6.635,26.024,17.75
	c14.577,28.66,17.637,43.279,17.637,50.496C212.649,275.835,193.063,299.649,168.988,299.649z"/>
<path d="M168.988,218.281c-18.546,0-33.636,15.089-33.636,33.636s15.089,33.636,33.636,33.636s33.636-15.089,33.636-33.636
	S187.534,218.281,168.988,218.281z M168.988,270.538c-10.267,0-18.621-8.353-18.621-18.621s8.353-18.621,18.621-18.621
	c10.268,0,18.621,8.353,18.621,18.621S179.255,270.538,168.988,270.538z"/>
<path d="M252.702,135.907l-15.896-14.212c-6.759-6.043-17.174-5.46-23.217,1.299l-5.503,6.156
	c-2.928,3.274-4.404,7.492-4.159,11.878c0.245,4.385,2.184,8.412,5.457,11.339l15.896,14.211c3.04,2.718,6.893,4.186,10.939,4.186
	c0.312,0,0.626-0.009,0.939-0.026c4.385-0.245,8.412-2.184,11.339-5.457l5.505-6.156l0,0
	C260.043,152.365,259.461,141.951,252.702,135.907z M242.808,149.117l-5.505,6.156c-0.326,0.364-0.715,0.458-0.984,0.473
	c-0.267,0.017-0.667-0.035-1.031-0.361l-15.896-14.212c-0.364-0.326-0.458-0.715-0.473-0.984c-0.015-0.269,0.035-0.668,0.361-1.032
	l5.503-6.156c0.282-0.315,0.673-0.475,1.066-0.475c0.338,0,0.679,0.119,0.951,0.362l15.896,14.211
	C243.282,147.625,243.333,148.529,242.808,149.117z"/>
<path d="M294.53,191.783c-2.999-3-6.987-4.652-11.23-4.652s-8.231,1.652-11.23,4.652l-9.711,9.712c-3,3-4.652,6.988-4.652,11.23
	c0,4.242,1.652,8.231,4.651,11.229l9.712,9.712c2.999,3,6.987,4.652,11.23,4.652s8.231-1.652,11.23-4.652l9.711-9.711
	c3-3,4.652-6.988,4.652-11.23c0-4.242-1.652-8.231-4.651-11.23L294.53,191.783z M293.626,213.336L293.626,213.336l-9.714,9.714
	c-0.336,0.336-0.888,0.336-1.224,0l-9.714-9.713c-0.168-0.168-0.253-0.374-0.253-0.612c0-0.238,0.085-0.443,0.254-0.613l9.712-9.713
	c0.168-0.168,0.374-0.253,0.612-0.253c0.237,0,0.443,0.085,0.612,0.253l9.714,9.713c0.168,0.168,0.253,0.374,0.253,0.613
	C293.879,212.962,293.794,213.168,293.626,213.336z"/>
<path d="M289.832,161.443h8.71c4.147,0,7.507-3.361,7.507-7.507s-3.36-7.507-7.507-7.507h-8.71c-4.147,0-7.507,3.361-7.507,7.507
	S285.685,161.443,289.832,161.443z"/>
<path d="M145.243,334.069c-2.731-3.121-7.474-3.437-10.593-0.707c-3.121,2.731-3.437,7.473-0.707,10.593l7.62,8.709
	c1.484,1.697,3.563,2.565,5.653,2.565c1.755,0,3.516-0.612,4.941-1.857c3.121-2.731,3.437-7.473,0.707-10.593L145.243,334.069z"/>
<g>
</g>
<g>
</g>
<g>
</g>
<g>
</g>
<g>
</g>
<g>
</g>
<g>
</g>
<g>
</g>
<g>
</g>
<g>
</g>
<g>
</g>
<g>
</g>
<g>
</g>
<g>
</g>
<g>
</g>
</svg>
